Description

Sinopse e detalhes

Arthur (Clive Owen) é um líder relutante, que deseja deixar a Bretanha e retornar a Roma para viver em paz. Porém, antes que possa realizar esta viagem, ele parte em missão ao lado dos Cavaleiros da Távola Redonda, formado por Lancelot (Ioan Gruffudd), Galahad (Hugh Dancy), Bors (Ray Winstone), Tristan (Mads Mikkelsen) e Gawain (Joel Edgerton). Nesta missão Arthur toma consciência de que, quando Roma cair, a Bretanha precisará de alguém que guie a ilha aos novos tempos e a defenda das ameaças externas. Com a orientação de Merlin (Stephen Dillane) e o apoio da corajosa Guinevere (Keira Knightley) ao seu lado, Arthur decide permanecer no país para liderá-lo.

Format : Matroska
Format version : Version 2
File size : 982 MiB
Duration : 2h 21mn
Overall bit rate : 969 Kbps
Encoded date : UTC 2013-06-03 22:30:32
Writing application : mkvmerge v5.8.0 ('No Sleep / Pillow') built on Sep 2 2012 15:37:04
Writing library : libebml v1.2.3 + libmatroska v1.3.0

Video
ID : 1
Format : AVC
Format/Info : Advanced Video Codec
Format profile : High@L4.1
Format settings, CABAC : Yes
Format settings, ReFrames : 4 frames
Muxing mode : Header stripping
Codec ID : V_MPEG4/ISO/AVC
Duration : 2h 21mn
Bit rate : 566 Kbps
Width : 704 pixels
Height : 304 pixels
Display aspect ratio : 2.35:1
Frame rate mode : Constant
Frame rate : 23.976 fps
Color space : YUV
Chroma subsampling : 4:2:0
Bit depth : 8 bits
Scan type : Progressive
Bits/(Pixel*Frame) : 0.110
Stream size : 573 MiB (58%)
Title : Rei Arthur(by fantasma)
Writing library : x264 core 130 r2273 b3065e6
Encoding settings : cabac=1 / ref=3 / deblock=1:0:0 / analyse=0x3:0x113 / me=hex / subme=7 / psy=1 / psy_rd=1.00:0.00 / mixed_ref=1 / me_range=16 / chroma_me=1 / trellis=1 / 8x8dct=1 / cqm=0 / deadzone=21,11 / fast_pskip=1 / chroma_qp_offset=-2 / threads=3 / lookahead_threads=1 / sliced_threads=0 / nr=0 / decimate=1 / interlaced=0 / bluray_compat=0 / constrained_intra=0 / bframes=3 / b_pyramid=2 / b_adapt=1 / b_bias=0 / direct=1 / weightb=1 / open_gop=0 / weightp=2 / keyint=240 / keyint_min=23 / scenecut=40 / intra_refresh=0 / rc_lookahead=40 / rc=crf / mbtree=1 / crf=23.0 / qcomp=0.60 / qpmin=0 / qpmax=69 / qpstep=4 / vbv_maxrate=24000 / vbv_bufsize=24000 / crf_max=0.0 / nal_hrd=none / ip_ratio=1.40 / aq=1:1.00
Language : Portuguese
Default : Yes
Forced : No

Audio
ID : 2
Format : AC-3
Format/Info : Audio Coding 3
Mode extension : CM (complete main)
Format settings, Endianness : Big
Muxing mode : Header stripping
Codec ID : A_AC3
Duration : 2h 21mn
Bit rate mode : Constant
Bit rate : 384 Kbps
Channel(s) : 6 channels
Channel positions : Front: L C R, Side: L R, LFE
Sampling rate : 48.0 KHz
Bit depth : 16 bits
Compression mode : Lossy
Stream size : 389 MiB (40%)
Title : por
Language : Portuguese
Default : Yes
Forced : No

Text #1
ID : 3
Format : VobSub
Muxing mode : zlib
Codec ID : S_VOBSUB
Codec ID/Info : The same subtitle format used on DVDs
Language : English
Default : No
Forced : No

Text #2
ID : 4
Format : VobSub
Muxing mode : zlib
Codec ID : S_VOBSUB
Codec ID/Info : The same subtitle format used on DVDs
Language : Spanish
Default : No
Forced : No

Text #3
ID : 5
Format : VobSub
Muxing mode : zlib
Codec ID : S_VOBSUB
Codec ID/Info : The same subtitle format used on DVDs
Language : Portuguese
Default : No
Forced : No

Text #4
ID : 6
Format : VobSub
Muxing mode : zlib
Codec ID : S_VOBSUB
Codec ID/Info : The same subtitle format used on DVDs
Language : English
Default : No
Forced : No

Text #5
ID : 7
Format : VobSub
Muxing mode : zlib
Codec ID : S_VOBSUB
Codec ID/Info : The same subtitle format used on DVDs
Language : Spanish
Default : No
Forced : No

Text #6
ID : 8
Format : VobSub
Muxing mode : zlib
Codec ID : S_VOBSUB
Codec ID/Info : The same subtitle format used on DVDs
Language : Portuguese
Default : No
Forced : No

Text #7
ID : 9
Format : UTF-8
Codec ID : S_TEXT/UTF8
Codec ID/Info : UTF-8 Plain Text
Title : Credito
Language : Portuguese
Default : Yes
Forced : No

Menu
00:00:00.000 : en:Chapter 01
00:13:23.167 : en:Chapter 02
00:21:40.001 : en:Chapter 03
00:35:14.668 : en:Chapter 04
00:45:02.401 : en:Chapter 05
00:55:29.035 : en:Chapter 06
01:04:37.569 : en:Chapter 07
01:12:09.203 : en:Chapter 08
01:23:45.870 : en:Chapter 09
01:34:02.672 : en:Chapter 10
01:43:26.540 : en:Chapter 11
01:54:02.074 : en:Chapter 12
02:05:26.508 : en:Chapter 13
02:10:28.342 : en:Chapter 14
02:21:30.043 : en:Chapter 15